<svg xmlns="http://www.w3.org/2000/svg" viewBox="0 0 321.45 372.38"><defs><style>.cls-1{fill:#0e0d0d;stroke-width:3px;}.cls-1,.cls-2{stroke:#fff;stroke-miterlimit:10;}.cls-2,.cls-3{fill:#fff;}</style></defs><title>darthschool</title><g id="Capa_3" data-name="Capa 3"><path class="cls-1" d="M303.3,376.56c-.12-2.45.3-5-.4-7.34-.29-1.42,0-2.87-.18-4.29-1.14-4.39.1-9-1-13.4-.32-3.1.24-6.26-.41-9.33-.57-2.58.13-5.26-.52-7.83-.48-1.81-.22-3.69-.26-5.54,0-7.14,0-14.28,0-21.42-.24-1.48,0-3.05-.57-4.46a7.68,7.68,0,0,0-1.72-2.53,12.93,12.93,0,0,0-2.39-2.17c-1.56-.95-2.89-2.22-4.48-3.13-6.88-4.08-14-7.74-21.05-11.51-3-1.91-6.26-3.4-9.2-5.43-2.39-1.36-4.56-3-6.84-4.57a61.37,61.37,0,0,1-8.77-7.81,2.32,2.32,0,0,1-.64-1c2.44.48,4.78,1.58,7.31,1.45,1.71-.08,3.49.26,5.12-.41a22.53,22.53,0,0,0,7.6-2.95,25.06,25.06,0,0,0,3.71-3.34,10.79,10.79,0,0,0,1.86-4.76,8.06,8.06,0,0,0-.51-3c-.83-3.56-2.73-6.7-4.17-10-1.22-2.14-2.51-4.23-3.67-6.41-2.16-3.62-4.39-7.21-6.35-10.95-4.41-7.86-9.38-15.48-12.64-23.92a57.64,57.64,0,0,1-2.48-9.69c-.14-1.29-.17-2.59-.41-3.86-.41-2.84-.26-5.73-.39-8.6a22.86,22.86,0,0,1-.5-4.37,43.06,43.06,0,0,0-7.57-19.17c-1.93-2.31-3.64-4.84-5.94-6.81-.63-.54-1.25-1.1-1.86-1.66a69.45,69.45,0,0,0-5.59-4.18,66.33,66.33,0,0,0-10.83-5.49,77,77,0,0,0-7.67-2.48c-2.62-.51-5.2-1.33-7.88-1.38a27.82,27.82,0,0,0-3.26-.47c-3.25,0-6.5-.07-9.75.07a26.79,26.79,0,0,1-3.79.53c-1.75.51-3.57.72-5.29,1.3A34.57,34.57,0,0,0,156,141.56c-2.69,2.34-4.17,5.68-5.25,9A111.55,111.55,0,0,0,148,161.8c-1,4.28-1.72,8.69-3.59,12.7a6.81,6.81,0,0,1-1.43,2.29c-.38-1.42.45-2.75.35-4.16a10.73,10.73,0,0,1,.28-2.46c.37-1.34.19-2.76.55-4.1.46-1.76.32-3.6.77-5.36.06-1.57.67-3,.84-4.57a48.14,48.14,0,0,1,3.8-11.8,26,26,0,0,1,5.64-7.61c-2,0-3.91.88-5.82,1.43a49,49,0,0,0-8.62,3.62c-4.3,2.36-8.45,5.31-11.23,9.43-1.68,2.52-2.33,5.52-3,8.43-.08,1.55-.6,3-.69,4.57-1.06,5.76-1.89,11.76-5,16.87-1.21,1.83-2.59,3.54-4,5.27-1.25,2-3,3.69-3.51,6a54.83,54.83,0,0,0-1.55,5.75c-.14,1.81-.71,3.55-.67,5.37a33.82,33.82,0,0,0-.52,7.1c-.43,4.5-.22,9-.23,13.55,0,.91.2,1.8.22,2.71,0,4.79,0,9.59,0,14.38,0,2.28-.66,4.5-.55,6.79.07,1-.48,1.83-.48,2.78,1,.24,2-.43,3-.52a9.75,9.75,0,0,0,0,4.77,14.91,14.91,0,0,1,.24,4.27,10.54,10.54,0,0,1-1.13-.08c-1-.31-1.43-1.73-2.58-1.67a7.56,7.56,0,0,1-1.3,3c-.71,2.5.36,5,.62,7.53.1.53,0,1.2.48,1.58a5.68,5.68,0,0,0,1.44.65,88.77,88.77,0,0,0,13.6,4c.92.44,2,.21,2.94.57,1.2.38,2.49.2,3.68.62s2.7,0,4,.38c1.86.65,3.85.29,5.77.4a35.37,35.37,0,0,1,4.37.29c3.79.06,7.57,0,11.36,0,.57,1.35,1.55,2.5,2,3.92,1,2.59.2,5.41-.88,7.83-1.08,2.11-2.5,4-3.55,6.16-.66,1.8-1.61,3.7-1.06,5.65a9,9,0,0,1,.3,4.19,16,16,0,0,1-2.17,4.13c-1.61,2.32-4.16,3.66-6.35,5.34a27.92,27.92,0,0,0-3.72,2.75c-.62.67-1.5,1.1-2,1.91.1-.4-.06-.56-.46-.46a4.7,4.7,0,0,0,1-1,18.47,18.47,0,0,1,4.37-4c1.71-1.15,3.32-2.45,5-3.72,2.8-2.26,4.41-6.41,2.74-9.82q-3.26,1.8-6.42,3.75a72.92,72.92,0,0,0-20.86,23,36.16,36.16,0,0,0-2.47,4.27c-1.44,2.92-3,5.79-4.18,8.83-.88,2.07-1.57,4.22-2.43,6.3a25.73,25.73,0,0,0-1.06,3.1c-1.49,3.73-2.36,7.66-3.58,11.48-1.13,4.69-2.46,9.35-3.18,14.13a2.4,2.4,0,0,1-.28.73,5.22,5.22,0,0,1-.92,2.33,5.8,5.8,0,0,1-.19.59,5.6,5.6,0,0,1-.39,1.51,6.06,6.06,0,0,1-.22,1.33c0,1-.48,1.5-.48,2.83A15.54,15.54,0,0,0,106,388.2c.65,2.13,1.53,4.17,2.27,6.25a15.85,15.85,0,0,0,2.65,4.12c.33.54,1,.36,1.56.43,0-.89,0-1.77,0-2.64s.43-1.43.52-2.17c.3-1.34,0-2.73.34-4.07.38-1.89.22-3.85.72-5.72a11,11,0,0,0,.19-2.69c0-.87.48-1.64.55-2.5a14.89,14.89,0,0,1,.21-3.13,10.55,10.55,0,0,0,.35-3.06c-.08-1.21.59-2.31.54-3.51a5.56,5.56,0,0,1,.31-2.26c.16,2.74-.18,5.5.16,8.22a6.85,6.85,0,0,0,0,2.12,18.21,18.21,0,0,1,.16,7.28c.08.36.54.47.8.7.11.66.2,1.31.25,2a10.82,10.82,0,0,1,4.12,1.27c2.49,1.29,4.26,3.52,6.13,5.54a15.74,15.74,0,0,0,4.45,3.16,25.67,25.67,0,0,0,4.23,1.24,7.6,7.6,0,0,0,.33-3c.3.59.26,1.78,1.19,1.59h10.86c.43.06,1-.22.92-.7a11.06,11.06,0,0,1,.4-3.09c.32-2.33.78-4.64,1.24-6.94,1.38-6.5,2.89-13,4.76-19.36.42-1.9,1.44-3.61,1.87-5.51a181.84,181.84,0,0,1,7.44-18.12c.89-2,2.25-3.68,3-5.68a90.57,90.57,0,0,1,5.46-8.87c1.26-1.75,2.28-3.66,3.68-5.3a132.36,132.36,0,0,1,9.45-10.89,11.49,11.49,0,0,1,2.62-2.3c-.58,1.62-2.1,2.66-3,4.08-3.72,4.57-7.05,9.43-10.4,14.27-1,1.53-2.08,3-3,4.61-1.07,2-2.52,3.74-3.47,5.8-1.53,2.64-3.1,5.25-4.39,8-2,4.3-4.09,8.55-5.69,13-1.23,3.25-2.31,6.55-3.45,9.83-1,3.31-1.7,6.69-2.61,10-.23,1.91-1,3.7-1.26,5.61-.18,1.61-.83,3.15-.81,4.79a39.39,39.39,0,0,0-.86,5.61,2.7,2.7,0,0,0,1.75.07c2-.65,4-1.25,5.87-2a15.25,15.25,0,0,1,3.69-.71c.94.17,1.43,1.17,1.74,2,1.86-.54,3.38-1.78,5.06-2.7,3.84-2.83,7.1-6.5,11.44-8.63a7.85,7.85,0,0,1,3.14-1c1,0,2,0,2.93,0,.78,0,1.55.43,2.33.22,1-1.19,1.17-2.79,1.78-4.16,1-2.34,1.64-4.82,2.73-7.12.88-1.88,1.41-3.91,2.42-5.74.73-1.36,1.23-2.82,2-4.16s1.21-2.89,2-4.23c1-1.65,1.68-3.48,2.69-5.14.76-1.54,1.79-2.94,2.62-4.44,1.34-2.4,3.09-4.53,4.55-6.85,1.24-2,3.09-3.44,4.49-5.27a4.2,4.2,0,0,1,1.7-1.4c-.33,1.83-1.65,3.25-2.52,4.84-4.3,7.52-9.08,14.75-13.17,22.38-1.48,3.18-3.37,6.16-4.64,9.44-1,2.59-2.23,5.09-3.1,7.73-.44,1.46-1.28,2.85-1.06,4.44,5.29,0,10.59,0,15.88,0a18.2,18.2,0,0,0,3.82-.45c1.25-.14,2.75-.11,3.65-1.12.56-1.44,1.49-2.74,1.81-4.27l.36-.17c-.13,1.45-.89,2.77-.92,4.24,0,.53-.26,1.33.43,1.56,3.48.06,7,.06,10.46,0a7.88,7.88,0,0,0,.33,2.41c1.11,3.46,1.25,7.18,2.79,10.5.68,1.49,1.28,3.19,2.76,4.08.67-1,.42-2.3.34-3.44-.63-3.2.28-6.54-.67-9.7-.35-2,.2-4.1-.42-6.07-.48-1.62-.05-3.34-.41-5a51,51,0,0,1-.65-7,51,51,0,0,1-.53-7.91,29.26,29.26,0,0,1-.43-7.65c.37-1.93-.31-3.88.06-5.82a11.6,11.6,0,0,1,.83,2,57.07,57.07,0,0,0,3.28,7.83c1.36,3.11,3.34,5.88,5,8.81,1,1.81,2.11,3.52,3.15,5.28a11.6,11.6,0,0,1,1.61,2.87c-1.65-.48-2.75-1.87-3.9-3-2.11-2.26-3.74-4.91-5.78-7.23h-.68c.28,1.3,1,2.45,1.3,3.75a12.4,12.4,0,0,1,.15,2.66c0,3.62,0,7.24,0,10.86a14.18,14.18,0,0,0,.61,3.14,4.87,4.87,0,0,0,4.16,3.72c.81,0,1.23-.88,1.43-1.57.18-1.94-.09-3.9.12-5.84.35-.64,1.24-.4,1.67,0a20.68,20.68,0,0,0,4.34,3,14.07,14.07,0,0,0,8.18,2,9.64,9.64,0,0,0,7-3.65,14.23,14.23,0,0,0,2.08-3.3,5.79,5.79,0,0,1,1.19-2.16,17.43,17.43,0,0,1,3.54-.08c1.54-.11,3,.54,4.45.85,3.27,1.06,6.39,2.52,9.65,3.62a2.75,2.75,0,0,0,2.27-.24c-.5-.18-.61-.72-.89-1.11a27.28,27.28,0,0,1-1.58-2.91,26.34,26.34,0,0,0-3.2-4.77c-1.49-2-3.31-3.77-4.93-5.68-1.45-1.89-3.16-3.58-4.43-5.61a28.29,28.29,0,0,1-2.56-4.51,20.06,20.06,0,0,1-1.41-4.19c.35-.54,1-.33,1.56-.36,1.66.09,3.35-.18,5,.25a17,17,0,0,1,3.57,1.06c2.83,1.26,4.71,3.82,6.69,6.09a41.61,41.61,0,0,0,5.07,4.95,11.44,11.44,0,0,1,3.8,5.44c1,2.64,1.3,5.53,2.8,8a9.29,9.29,0,0,0,5,4.27,4.42,4.42,0,0,0,2.34.62c.36-.21.31-.63.34-1C302.76,380,303.45,378.3,303.3,376.56Zm-174.84-28c-.14,1.09,0,2.2-.18,3.29a32.24,32.24,0,0,0-.12,4.61c0,6.33,0,12.66,0,19a41.77,41.77,0,0,1,.21,6.23,15.76,15.76,0,0,1-.21,3.82c-.31-.18-.87-.19-.93-.62-.2-1.15-.47-2.3-.65-3.46-.11-1.45,0-2.9-.08-4.35.09-2-.55-4-.5-6s.23-4.15.26-6.24c.61-3.18-.14-6.48.7-9.64a37.37,37.37,0,0,1,.61-5.68c.15-2.38.88-4.68.88-7.07h.17A30.34,30.34,0,0,1,128.46,348.59ZM132.2,327a10.84,10.84,0,0,0-1.81,4.74c0,.55,0,1.1-.12,1.65-.7.82-2,.1-2.79.84a9.85,9.85,0,0,0-3,3.77,5.88,5.88,0,0,1,1.1-3.31,96.82,96.82,0,0,1,8.26-11A2,2,0,0,1,135,323C133.86,324.22,133.17,325.73,132.2,327Zm14.31-4.73c-1.2,3.35-2.46,6.69-3.52,10.09-.31,1.64-1.09,3.14-1.48,4.75-1,3.43-1.95,6.88-2.6,10.39-.27,1.74-1,3.39-1.09,5.15-.15,1.55-.66,3.05-.72,4.61a14,14,0,0,1-.41,2.22c-.25,1.09-.05,2.22-.27,3.32a15.59,15.59,0,0,0-.41,3.41,8.61,8.61,0,0,1-.26,3.08c-.11-2.11,0-4.22-.06-6.34-.09-1.57.72-3,.54-4.61a16.55,16.55,0,0,1,.52-3.77,13.65,13.65,0,0,1,.36-3.31c.32-1.1.09-2.27.49-3.35s.22-2,.54-3a106.45,106.45,0,0,1,3-11.66c.33-1.13.61-2.27,1-3.37,1.6-3.88,3.08-7.88,5.41-11.4a5.13,5.13,0,0,1,1-1.13A26,26,0,0,1,146.51,322.31Zm-32.25-71.67c0-.17,0-.5,0-.67a9.81,9.81,0,0,1,3.93,0C117.14,250.79,115.55,250.55,114.26,250.64Zm5.5-2.48a8.8,8.8,0,0,1,1.5-4.53A4.92,4.92,0,0,1,119.76,248.16Zm5.82,12.11-.44-.42a8.43,8.43,0,0,1,3.53.87,3.67,3.67,0,0,1,1.53,1.11A19.81,19.81,0,0,1,125.58,260.27Zm8.16.71a23.58,23.58,0,0,0-4.71-1.9,10.76,10.76,0,0,1,5.06-3.52,6.37,6.37,0,0,1,1.31-.1c-.68.56-1.53.85-2.17,1.45.4.9.53,1.91,1,2.81a3.74,3.74,0,0,0,1.79,1.13C135.23,260.9,134.46,261.28,133.74,261Zm9.82,6.75-1.1,0a13.18,13.18,0,0,0-.35-2.43c-.24-.69-1-.93-1.59-1.17.31-.17.59-.46,1-.47a11.3,11.3,0,0,1,2.08,1.26A17.2,17.2,0,0,0,143.56,267.73Zm.25-27c-.41,1-.13,2.16-.22,3.25-6.08,2.31-11.94,5.22-18.13,7.26-1.22.22-2.41.6-3.64.78a7,7,0,0,1,1-2.88,80.32,80.32,0,0,0,4.09-9.95,5.53,5.53,0,0,1,0,1.15,36.52,36.52,0,0,1-2.45,7.19,6.53,6.53,0,0,0-.83,2.28c1.71.15,3-1.1,4.21-2.17,1.59-1.5,2.12-3.7,2.77-5.71,1-3.15,1.26-6.57,3-9.46.2.62.45,1.23.66,1.85.65,3.18-.64,6.26-1.61,9.23-.43,1.07-1,2.08-1.38,3.19,2.16.52,4-1.61,4.16-3.62s.89-3.94.78-6c.26-1.35.42-2.9,1.51-3.86a8.23,8.23,0,0,1,1.16,1.2c.5,2.31-.45,4.56-1,6.77a23.11,23.11,0,0,0,0,3.43,2.13,2.13,0,0,1,.9.54c2.47-2.42,2.61-6,3.83-9.08.56.43,1.29.82,1.45,1.57A6.27,6.27,0,0,1,143.81,240.75Zm-19.44-4.92c.52-2.58,1-5.17,1.53-7.75.15-.72-.12-1.66.54-2.17a14.67,14.67,0,0,1-.41,5c-.2,2.45-1.3,4.72-1.53,7.17A8,8,0,0,1,124.37,235.83Zm12.87-36.7c-.07.15-.22.44-.3.59a12.86,12.86,0,0,0-2.19-5.19,8.29,8.29,0,0,1,2.57-.33C137.23,195.84,137.42,197.49,137.24,199.13Zm.92,24.33c.49,1.49,1.43,2.86,1.67,4.41l-.68,0a31.62,31.62,0,0,0-3.09-2C136.51,224.82,137.49,224.27,138.16,223.46Zm-2-8.73c-.78,0-1.21-.92-2-1a23.4,23.4,0,0,0-5.28.38c.26-.41.51-.84.74-1.28a5.38,5.38,0,0,1,4.44-.44C135.13,212.72,136.51,213.47,136.2,214.73Zm-3.36,10.65c-1.08,2-2.56,3.85-3,6.14a4,4,0,0,0-.68.18c.18-1.93-.27-4.17,1.08-5.78C130.89,225.12,132,225.43,132.84,225.38Zm-.94-31.46c-.41.77-2.22.24-1.39-.57C130.92,193,132.33,193.19,131.9,193.92Zm-1,1.52a5.75,5.75,0,0,1,.78,2.42c-.58.94-1.73,1.11-2.71,1.37-.64-1.37.55-2.56,1.1-3.73A1.09,1.09,0,0,0,130.89,195.44Zm-1.35,13.62c-.38,1.89-1.11,3.7-1.34,5.62a30.07,30.07,0,0,0-.56,3.24c-.07.68.09,1.51-.48,2-.36-3.61.32-7.31-.47-10.89C127.64,209.07,128.59,209,129.54,209.06Zm-3,15.53c0-.82,0-1.64,0-2.46C127.44,222.57,127.19,224,126.57,224.59Zm19.92-25.73a28.66,28.66,0,0,1,.63,6.34c.06.5.68.67,1.08.87,1.77.41,3.54.83,5.34,1.12a37.07,37.07,0,0,0,7.81.09,5,5,0,0,1,2.2.35c-1.48.6-3.1.29-4.64.38-2.37-.08-4.81.27-7.11-.46a24,24,0,0,1-10.1-3.15,24.17,24.17,0,0,1,.73-4.71c.79-2.67,1.69-5.44,3.57-7.55A26.14,26.14,0,0,0,146.49,198.86Zm3.89-6.51a6.25,6.25,0,0,1,1.79-1.32c.59-.14,1.4-.33,1.78.3a1.88,1.88,0,0,1-1.56,2,9.13,9.13,0,0,1-2.09,0A.62.62,0,0,1,150.38,192.35Zm-7.69,22.45c2.54-.49,5.17.12,7.7-.52,1.58-.34,3.23,0,4.79-.49,1.36-.35,2.8-.23,4.15-.71,1.82-.15,3.54-.89,5.37-1a16.28,16.28,0,0,1-7.37,2.8c-3.12.81-6.42,1-9.37,2.39,1.29,1.94,2.65,4,4.71,5.17a1.65,1.65,0,0,1-1,.12c-2.39-.76-4.85-1.7-6.61-3.58A7.41,7.41,0,0,1,142.69,214.8Zm21.64-7.72a4.36,4.36,0,0,1,2.11-.26c0,.17-.05.51-.07.68A4.64,4.64,0,0,1,164.33,207.08Zm-15.41,35.43a6.76,6.76,0,0,1-2.77.52c1-1.58,2.59-3.1,2.33-5.18,1.75.49,3.09,1.74,4.54,2.76a7.26,7.26,0,0,1,1.55,1.76C152.69,242.52,150.79,242.32,148.92,242.51ZM165,298.71c-.06.71.07,1.57-.54,2.07A9,9,0,0,1,157,302c1-1.2,2.48-1.93,3.24-3.33a15.13,15.13,0,0,0,1.75-4.93c.23-2,.06-4.11.1-6.17s-.79-4.14-1.13-6.22a36.38,36.38,0,0,0-3-7.2,34.85,34.85,0,0,0-4.17-5.22,17.16,17.16,0,0,0,6.22.6,5.33,5.33,0,0,0-.69,2.58,12.37,12.37,0,0,0,.34,4.07c1.34,4.7,3.87,9,5,13.74.42,1.56.35,3.21.77,4.79C165.74,296.09,165,297.38,165,298.71Zm6.55-10.21c-.47,2.17-.49,4.47-1.39,6.52-.13-2,0-4-.09-6.07q-1.7-8.81-4.26-17.42c-1.35-3.67-2.38-7.46-4-11-1.79-4.18-3.77-8.28-5.87-12.31-.52-.73.29-1.45.87-1.81a7.35,7.35,0,0,1,3.75-1.22c2.33,0,4.67-.1,7,.07-.27.45-.85.49-1.3.69-1.65.53-3.24,1.24-4.91,1.71a9,9,0,0,0-2,.77c-.47.23-.23.8-.16,1.18.27,1,.71,2,1.06,3a72.59,72.59,0,0,0,3.07,7,31.5,31.5,0,0,0,1.57,3.06c.87,1.45,1.44,3.05,2.2,4.56a52.26,52.26,0,0,1,3.34,8.55,21.54,21.54,0,0,1,.8,3.83,25.65,25.65,0,0,1,.4,8.88Zm1.37-83.69c-1.86,1-3.8,2.17-6,1.91.5-.72,1.44-.43,2.14-.76a38,38,0,0,0,4.07-2c1-.51,1.52-1.6,2.62-1.86C175.3,203.42,174,204.12,172.93,204.81Zm2.63,3.72a28.78,28.78,0,0,0-3.67,6.48c-.53-1-.21-2.18-.08-3.27a2.18,2.18,0,0,1,.94-1.36c1.08-.86,1.72-2.13,2.76-3A.89.89,0,0,1,175.56,208.53Zm8,33.39c-3.33.76-6.74,1.17-10,2.09-1.8.38-3.57,1-5.39,1.25a25.78,25.78,0,0,1,1.89-3.7,26.18,26.18,0,0,1,4.19-5.63,63.29,63.29,0,0,1,8-7.73c2.43-2.22,5.2-4,7.8-6a18.22,18.22,0,0,1,2.46-1.51,18.38,18.38,0,0,0,1.46,5,31.43,31.43,0,0,1,1.65,3.28l-.75-.05a38,38,0,0,0-3.3-5.1c-2.49,1.81-5.12,3.41-7.58,5.26-4.16,3.22-8.29,6.58-11.56,10.75a5.43,5.43,0,0,0-.58,1.3,40.16,40.16,0,0,0,6.67-.18q4.16-.33,8.33-.39a31,31,0,0,1,6.31-.51,24.05,24.05,0,0,0,4-.47c2-.14,4,0,6-.17a8.88,8.88,0,0,0,3.23-.8,18.54,18.54,0,0,1-4.64-5.55,42.05,42.05,0,0,1-4-6.81c-2.14-4.14-3.75-8.52-5.7-12.74-1.16-2.23-2.17-4.55-3.37-6.76A35.84,35.84,0,0,0,184,200.4a16.14,16.14,0,0,0-3.21-2.8c-.59-.4-1.28-.65-1.84-1.08a17,17,0,0,1-.14-1.88,9.55,9.55,0,0,0-3.6-5.54c-2.27-1.7-5.14-2.31-7.9-2.71a19.57,19.57,0,0,0-7.7.08,30.33,30.33,0,0,0-6.32,1.3c-1.52.44-2.9,1.28-4.45,1.62.65-1.46,2.27-2.08,3.58-2.82a12.71,12.71,0,0,1,4.74-1.42,15.48,15.48,0,0,1,5.26-.4c1.2,0,2.31.53,3.51.55,1,0,2.07,1,3,.37a13.86,13.86,0,0,0-7.09-3.64,29.31,29.31,0,0,0-4-.6,21.24,21.24,0,0,0-4.44.24c-1.34.35-2.75.3-4.07.76a30.25,30.25,0,0,0-8.2,3.32,14.07,14.07,0,0,0-4.64,4.63,3.15,3.15,0,0,1-1.49-.16c-2.3-.59-4.67-.86-7-1.4a24.75,24.75,0,0,0-3.55,0,6.53,6.53,0,0,0-1.62,2.06c-.76,2.08-.35,4.31-.15,6.45.46,1.91,1.48,3.67,1.71,5.63l-.51-.08c-1.67-2.94-2.6-6.22-4-9.28a5.81,5.81,0,0,0-3.76,5l-.42-.13c-.12-1.56.65-3,1.22-4.37,1.54-3.52,4.39-6.68,8.18-7.73a25.22,25.22,0,0,1,3.78-.6c.52-.5.27-1.34.46-2,.4-2,.57-4,1-6,.32-1.71,0-3.48.47-5.17.71-7.12,1.13-14.45,4-21.11a2.72,2.72,0,0,1,.33,1.83c-.29,2.17.08,4.39-.37,6.55s-.19,4.59-.65,6.85c-.26,1.61-.15,3.27-.53,4.87-.33,1.44-.14,2.94-.53,4.38-.31,1.29-.19,2.64-.57,3.92s-.14,2.38-.52,3.52a12.86,12.86,0,0,0-.36,3.5,3.73,3.73,0,0,0,1.72-.19,55.16,55.16,0,0,0,8.4-3.54,30.05,30.05,0,0,0,3.54-1.89,41.88,41.88,0,0,1,8.89-3.29,59.51,59.51,0,0,1,6.12,0,24.68,24.68,0,0,1,8.56,3.25,52.89,52.89,0,0,1,7.69,6.65,94.19,94.19,0,0,1,6.34,7.46,104,104,0,0,1,8.71,13.05c1.26,1.92,2.12,4.08,3.41,6a73.82,73.82,0,0,1,3.91,9.48c1.21,3,2.23,6,4,8.71a15.28,15.28,0,0,0,6.45,5.89c1.29.65,2.72.93,4.06,1.45-1.37.71-2.88.12-4.33.19-1.27,0-2.54-.05-3.8,0-2.29.29-4.61,0-6.9.21a38.38,38.38,0,0,1-5.86.47c-1.37,0-2.67.63-4.05.55C186.79,241.22,185.23,242,183.56,241.92Zm18.82,79.91c-1.1,1.69-2.45,3.19-3.57,4.86-1.61,2.1-3,4.35-4.73,6.4-2.65,3.93-5.73,7.57-8.1,11.69-2.28,3.36-4.36,6.84-6.47,10.31-1.49,2.36-2.46,5-4.07,7.31-2,3.55-3.42,7.39-5.33,11-1.32,3.25-2.55,6.54-3.84,9.8a4.52,4.52,0,0,0-.53,2l-.16-.37c.6-1.25.58-2.66,1-3.94,1-2.36,1.43-4.94,2.36-7.35.71-1.63,1.2-3.37,2-5s1.36-3.44,2.2-5.1,1.69-3.67,2.69-5.43a71.14,71.14,0,0,1,4-7.22c1.19-2,2.43-4.05,3.63-6.09,2-2.78,3.82-5.73,5.9-8.48,1.24-1.66,2.51-3.32,3.71-5,.69-.92,1.57-1.67,2.2-2.64.86-1.3,2.08-2.28,3-3.52,2.1-2.42,4-5,6.33-7.24a3.27,3.27,0,0,1,1.28-.82A22.59,22.59,0,0,1,202.38,321.83Zm1.28-38c-2.39,1.57-4.75,3.4-6.1,6a18,18,0,0,0-1.45,4.2,3,3,0,0,0,3.58.4c1-.49,1.68-1.38,2.65-1.89l.34.42a14.05,14.05,0,0,0-1,2,38.44,38.44,0,0,0,0,3.87,36.65,36.65,0,0,1-5.46-2.91c-2.64-2.06-5.56-3.77-8-6.12a39.65,39.65,0,0,1,7.41-8.66A38,38,0,0,1,206,274.41a28.29,28.29,0,0,1,4.23-1.74,41.18,41.18,0,0,1,7.58-2c1.36-.12,2.67-.64,4.06-.63,1.09-.09,2.32.26,3.27-.48,2.18,0,4.37-.13,6.55,0-.44.71-1.44.37-2.12.62-1.17.44-2.44.38-3.61.8a48.44,48.44,0,0,1-4.78.89,73.67,73.67,0,0,0-10.24,2.76,30.28,30.28,0,0,0-13.61,8.05c.63,1.1,2,.69,3,.62,5.82-.7,10.8-4.07,16.34-5.7,1.2-.31,2.38-.9,3.65-.68C214.94,279.68,208.91,280.87,203.66,283.87ZM223.37,367c-.85,1.62-1.83,3.19-2.81,4.74l-.62.06c1-2,2.4-3.85,3.5-5.84A1.3,1.3,0,0,1,223.37,367Zm2.77-30.12a9.73,9.73,0,0,1-1.54-2.4,27,27,0,0,1-2.66-6.52c-1-2.89-1.57-5.93-2.49-8.86-1.27-4.47-2.79-9.18-6.34-12.38,1.09-.33,1.95.61,2.72,1.23,3.35,3.21,5.34,7.55,6.73,11.91a62.55,62.55,0,0,1,2.34,9.34,63,63,0,0,1,1.36,7.33C226.23,336.65,226.18,336.82,226.14,336.91Zm10.38-59.58c-1.82.47-3.57,1.19-5.34,1.83-2.59.88-5.18,1.76-7.73,2.76-1.3.45-2.52,1.21-3.92,1.22a4.1,4.1,0,0,1,1.42-1,77.45,77.45,0,0,1,10.47-4.08c1.71-.55,3.5-.78,5.23-1.27C236.61,277,236.55,277.2,236.52,277.33Zm4.38-33.71a28.2,28.2,0,0,0-3.71-1.1,28.78,28.78,0,0,0-3.83,0,5.85,5.85,0,0,0,.25,2.76,37.54,37.54,0,0,0,2,4.14,16,16,0,0,1,1.93,4.07c-3-3.78-5.43-8-8.63-11.7-.39-.53-1.1-.34-1.66-.4-1.48.06-2.93-.33-4.41-.34a24.08,24.08,0,0,1,4.95-.37,43,43,0,0,1,6.32.22,21,21,0,0,0,3.44.52,35.2,35.2,0,0,1,6.2,1.72c1.22.5,2.86.68,3.46,2C245,245.46,242.89,244.47,240.9,243.62Z" transform="translate(-39.23 -98.44)"/></g><g id="Capa_4" data-name="Capa 4"><path class="cls-2" d="M226.14,336.91a9.73,9.73,0,0,1-1.54-2.4,27,27,0,0,1-2.66-6.52c-1-2.89-1.57-5.93-2.49-8.86-1.27-4.47-2.79-9.18-6.34-12.38,1.09-.33,1.95.61,2.72,1.23,3.35,3.21,5.34,7.55,6.73,11.91a62.55,62.55,0,0,1,2.34,9.34,63,63,0,0,1,1.36,7.33C226.23,336.65,226.18,336.82,226.14,336.91Z" transform="translate(-39.23 -98.44)"/><path class="cls-2" d="M146.51,322.31c-1.2,3.35-2.46,6.69-3.52,10.09-.31,1.64-1.09,3.14-1.48,4.75-1,3.43-1.95,6.88-2.6,10.39-.27,1.74-1,3.39-1.09,5.15-.15,1.55-.66,3.05-.72,4.61a14,14,0,0,1-.41,2.22c-.25,1.09-.05,2.22-.27,3.32a15.59,15.59,0,0,0-.41,3.41,8.61,8.61,0,0,1-.26,3.08c-.11-2.11,0-4.22-.06-6.34-.09-1.57.72-3,.54-4.61a16.55,16.55,0,0,1,.52-3.77,13.65,13.65,0,0,1,.36-3.31c.32-1.1.09-2.27.49-3.35s.22-2,.54-3a106.45,106.45,0,0,1,3-11.66c.33-1.13.61-2.27,1-3.37,1.6-3.88,3.08-7.88,5.41-11.4a5.13,5.13,0,0,1,1-1.13A26,26,0,0,1,146.51,322.31Z" transform="translate(-39.23 -98.44)"/><path class="cls-2" d="M165,298.71c-.06.71.07,1.57-.54,2.07A9,9,0,0,1,157,302c1-1.2,2.48-1.93,3.24-3.33a15.13,15.13,0,0,0,1.75-4.93c.23-2,.06-4.11.1-6.17s-.79-4.14-1.13-6.22a36.38,36.38,0,0,0-3-7.2,34.85,34.85,0,0,0-4.17-5.22,17.16,17.16,0,0,0,6.22.6,5.33,5.33,0,0,0-.69,2.58,12.37,12.37,0,0,0,.34,4.07c1.34,4.7,3.87,9,5,13.74.42,1.56.35,3.21.77,4.79C165.74,296.09,165,297.38,165,298.71Z" transform="translate(-39.23 -98.44)"/><path class="cls-2" d="M171.56,288.5c-.47,2.17-.49,4.47-1.39,6.52-.13-2,0-4-.09-6.07q-1.7-8.81-4.26-17.42c-1.35-3.67-2.38-7.46-4-11-1.79-4.18-3.77-8.28-5.87-12.31-.52-.73.29-1.45.87-1.81a7.35,7.35,0,0,1,3.75-1.22c2.33,0,4.67-.1,7,.07-.27.45-.85.49-1.3.69-1.65.53-3.24,1.24-4.91,1.71a9,9,0,0,0-2,.77c-.47.23-.23.8-.16,1.18.27,1,.71,2,1.06,3a72.59,72.59,0,0,0,3.07,7,31.5,31.5,0,0,0,1.57,3.06c.87,1.45,1.44,3.05,2.2,4.56a52.26,52.26,0,0,1,3.34,8.55,21.54,21.54,0,0,1,.8,3.83,25.65,25.65,0,0,1,.4,8.88Z" transform="translate(-39.23 -98.44)"/><path class="cls-2" d="M183.56,241.92c-3.33.76-6.74,1.17-10,2.09-1.8.38-3.57,1-5.39,1.25a25.78,25.78,0,0,1,1.89-3.7,26.18,26.18,0,0,1,4.19-5.63,63.29,63.29,0,0,1,8-7.73c2.43-2.22,5.2-4,7.8-6a18.22,18.22,0,0,1,2.46-1.51,18.38,18.38,0,0,0,1.46,5,31.43,31.43,0,0,1,1.65,3.28l-.75-.05a38,38,0,0,0-3.3-5.1c-2.49,1.81-5.12,3.41-7.58,5.26-4.16,3.22-8.29,6.58-11.56,10.75a5.43,5.43,0,0,0-.58,1.3,40.16,40.16,0,0,0,6.67-.18q4.16-.33,8.33-.39a31,31,0,0,1,6.31-.51,24.05,24.05,0,0,0,4-.47c2-.14,4,0,6-.17a8.88,8.88,0,0,0,3.23-.8,18.54,18.54,0,0,1-4.64-5.55,42.05,42.05,0,0,1-4-6.81c-2.14-4.14-3.75-8.52-5.7-12.74-1.16-2.23-2.17-4.55-3.37-6.76A35.84,35.84,0,0,0,184,200.4a16.14,16.14,0,0,0-3.21-2.8c-.59-.4-1.28-.65-1.84-1.08a17,17,0,0,1-.14-1.88,9.55,9.55,0,0,0-3.6-5.54c-2.27-1.7-5.14-2.31-7.9-2.71a19.57,19.57,0,0,0-7.7.08,30.33,30.33,0,0,0-6.32,1.3c-1.52.44-2.9,1.28-4.45,1.62.65-1.46,2.27-2.08,3.58-2.82a12.71,12.71,0,0,1,4.74-1.42,15.48,15.48,0,0,1,5.26-.4c1.2,0,2.31.53,3.51.55,1,0,2.07,1,3,.37a13.86,13.86,0,0,0-7.09-3.64,29.31,29.31,0,0,0-4-.6,21.24,21.24,0,0,0-4.44.24c-1.34.35-2.75.3-4.07.76a30.25,30.25,0,0,0-8.2,3.32,14.07,14.07,0,0,0-4.64,4.63,3.15,3.15,0,0,1-1.49-.16c-2.3-.59-4.67-.86-7-1.4a24.75,24.75,0,0,0-3.55,0,6.53,6.53,0,0,0-1.62,2.06c-.76,2.08-.35,4.31-.15,6.45.46,1.91,1.48,3.67,1.71,5.63l-.51-.08c-1.67-2.94-2.6-6.22-4-9.28a5.81,5.81,0,0,0-3.76,5l-.42-.13c-.12-1.56.65-3,1.22-4.37,1.54-3.52,4.39-6.68,8.18-7.73a25.22,25.22,0,0,1,3.78-.6c.52-.5.27-1.34.46-2,.4-2,.57-4,1-6,.32-1.71,0-3.48.47-5.17.71-7.12,1.13-14.45,4-21.11a2.72,2.72,0,0,1,.33,1.83c-.29,2.17.08,4.39-.37,6.55s-.19,4.59-.65,6.85c-.26,1.61-.15,3.27-.53,4.87-.33,1.44-.14,2.94-.53,4.38-.31,1.29-.19,2.64-.57,3.92s-.14,2.38-.52,3.52a12.86,12.86,0,0,0-.36,3.5,3.73,3.73,0,0,0,1.72-.19,55.16,55.16,0,0,0,8.4-3.54,30.05,30.05,0,0,0,3.54-1.89,41.88,41.88,0,0,1,8.89-3.29,59.51,59.51,0,0,1,6.12,0,24.68,24.68,0,0,1,8.56,3.25,52.89,52.89,0,0,1,7.69,6.65,94.19,94.19,0,0,1,6.34,7.46,104,104,0,0,1,8.71,13.05c1.26,1.92,2.12,4.08,3.41,6a73.82,73.82,0,0,1,3.91,9.48c1.21,3,2.23,6,4,8.71a15.28,15.28,0,0,0,6.45,5.89c1.29.65,2.72.93,4.06,1.45-1.37.71-2.88.12-4.33.19-1.27,0-2.54-.05-3.8,0-2.29.29-4.61,0-6.9.21a38.38,38.38,0,0,1-5.86.47c-1.37,0-2.67.63-4.05.55C186.79,241.22,185.23,242,183.56,241.92Z" transform="translate(-39.23 -98.44)"/><path class="cls-2" d="M202.38,321.83c-1.1,1.69-2.45,3.19-3.57,4.86-1.61,2.1-3,4.35-4.73,6.4-2.65,3.93-5.73,7.57-8.1,11.69-2.28,3.36-4.36,6.84-6.47,10.31-1.49,2.36-2.46,5-4.07,7.31-2,3.55-3.42,7.39-5.33,11-1.32,3.25-2.55,6.54-3.84,9.8a4.52,4.52,0,0,0-.53,2l-.16-.37c.6-1.25.58-2.66,1-3.94,1-2.36,1.43-4.94,2.36-7.35.71-1.63,1.2-3.37,2-5s1.36-3.44,2.2-5.1,1.69-3.67,2.69-5.43a71.14,71.14,0,0,1,4-7.22c1.19-2,2.43-4.05,3.63-6.09,2-2.78,3.82-5.73,5.9-8.48,1.24-1.66,2.51-3.32,3.71-5,.69-.92,1.57-1.67,2.2-2.64.86-1.3,2.08-2.28,3-3.52,2.1-2.42,4-5,6.33-7.24a3.27,3.27,0,0,1,1.28-.82A22.59,22.59,0,0,1,202.38,321.83Z" transform="translate(-39.23 -98.44)"/><path class="cls-2" d="M240.9,243.62a28.2,28.2,0,0,0-3.71-1.1,28.78,28.78,0,0,0-3.83,0,5.85,5.85,0,0,0,.25,2.76,37.54,37.54,0,0,0,2,4.14,16,16,0,0,1,1.93,4.07c-3-3.78-5.43-8-8.63-11.7-.39-.53-1.1-.34-1.66-.4-1.48.06-2.93-.33-4.41-.34a24.08,24.08,0,0,1,4.95-.37,43,43,0,0,1,6.32.22,21,21,0,0,0,3.44.52,35.2,35.2,0,0,1,6.2,1.72c1.22.5,2.86.68,3.46,2C245,245.46,242.89,244.47,240.9,243.62Z" transform="translate(-39.23 -98.44)"/><path class="cls-2" d="M203.66,283.38c-2.39,1.57-4.75,3.4-6.1,6a17.7,17.7,0,0,0-1.45,4.2,3,3,0,0,0,3.58.39c1-.49,1.68-1.38,2.65-1.88l.34.41a14.6,14.6,0,0,0-1,2,38.44,38.44,0,0,0,0,3.87,36.65,36.65,0,0,1-5.46-2.91c-2.64-2.06-5.56-3.77-8-6.12a39.89,39.89,0,0,1,7.41-8.66A38.28,38.28,0,0,1,206,273.92a29.38,29.38,0,0,1,4.23-1.74,42,42,0,0,1,7.58-2,39.37,39.37,0,0,1,4.06-.62c1.09-.09,2.32.25,3.27-.48,2.18,0,4.37-.14,6.55,0-.44.71-1.44.37-2.12.62-1.17.44-2.44.38-3.61.8-1.57.4-3.18.65-4.78.9a71,71,0,0,0-10.24,2.76,30.17,30.17,0,0,0-13.61,8c.63,1.1,2,.7,3,.62,5.82-.7,10.8-4.07,16.34-5.7,1.2-.31,2.38-.9,3.65-.68C214.94,279.19,208.91,280.38,203.66,283.38Z" transform="translate(-39.23 -98.44)"/><path class="cls-2" d="M125.58,260.27l-.44-.42a8.43,8.43,0,0,1,3.53.87,3.67,3.67,0,0,1,1.53,1.11A19.81,19.81,0,0,1,125.58,260.27Z" transform="translate(-39.23 -98.44)"/><path class="cls-2" d="M133.74,261a23.58,23.58,0,0,0-4.71-1.9,10.76,10.76,0,0,1,5.06-3.52,6.37,6.37,0,0,1,1.31-.1c-.68.56-1.53.85-2.17,1.45.4.9.53,1.91,1,2.81a3.74,3.74,0,0,0,1.79,1.13C135.23,260.9,134.46,261.28,133.74,261Z" transform="translate(-39.23 -98.44)"/><path class="cls-2" d="M143.56,267.73l-1.1,0a13.18,13.18,0,0,0-.35-2.43c-.24-.69-1-.93-1.59-1.17.31-.17.59-.46,1-.47a11.3,11.3,0,0,1,2.08,1.26A17.2,17.2,0,0,0,143.56,267.73Z" transform="translate(-39.23 -98.44)"/></g><g id="Capa_1" data-name="Capa 1"><path class="cls-3" d="M200,470.82l-1.32-.43c-2-.65-50.06-17-108.38-94.35C31,297.41,36.58,171.31,43.16,161.81c2-2.85,5.7-3,13.86-3.32,10.13-.41,25.42-1,31.86-7.81,6.2-6.54,7.5-18.14,8.65-28.37,1.32-11.73,2.68-23.87,13.29-23.87H289.08c10.61,0,12,12.14,13.29,23.88,1.15,10.23,2.45,21.82,8.65,28.36,6.44,6.79,21.73,7.4,31.86,7.81,8.16.32,11.89.47,13.86,3.32h0c6.58,9.5,12.17,135.6-47.09,214.23-58.32,77.38-106.36,93.7-108.38,94.35ZM50,167.49c-3.88,14.36-8,130.32,47.11,203.4,51.21,68,94.82,87.67,102.88,90.88,8-3.2,51.66-22.91,102.88-90.88,55.07-73.08,51-189,47.11-203.4-1.66-.24-4.79-.36-7.41-.47-11.5-.46-28.88-1.15-37.71-10.46-8.17-8.62-9.71-22.3-10.94-33.29-.86-7.64-1.83-16.29-4.8-16.29H110.82c-3,0-3.94,8.65-4.8,16.28-1.23,11-2.76,24.68-10.94,33.3-8.83,9.31-26.21,10-37.71,10.46C54.75,167.13,51.62,167.25,50,167.49Z" transform="translate(-39.23 -98.44)"/><path class="cls-3" d="M200,446.55l-1-.49c-13.53-6.83-49.47-28.66-90.82-83.53-41.7-55.33-48.4-141.87-46.11-179.9l.11-1.89,1.9-.11c13.44-.76,30.26-3.09,41.09-14.51,11.39-12,13.29-28.94,14.67-41.31l.45-3.93H279.62l.45,3.93c1.38,12.37,3.28,29.31,14.66,41.31,10.84,11.42,27.66,13.75,41.1,14.51l1.9.11.11,1.89c2.29,38-4.41,124.57-46.11,179.9-41.35,54.87-77.29,76.7-90.82,83.53ZM66.22,184.78C64.29,223.17,71.3,306.51,111.58,360c39.86,52.89,74.42,74.57,88.37,81.8,14-7.23,48.51-28.91,88.37-81.8,40.28-53.45,47.29-136.79,45.36-175.18-13.89-.93-30.7-3.76-42.05-15.72-12.37-13-14.35-30.8-15.81-43.77v-.14H124.09v.14c-1.46,13-3.45,30.73-15.82,43.77C96.92,181,80.11,183.85,66.22,184.78Z" transform="translate(-39.23 -98.44)"/></g></svg>